<svg xmlns="http://www.w3.org/2000/svg" version="1.1" width="36" height="36"><rect id="backgroundrect" width="100%" height="100%" x="0" y="0" fill="none" stroke="none"/>
<title>pause</title>


<g class="currentLayer" style=""><title>Layer 1</title><path fill="#bdae82" d="M15.047 34.594v-33.194c0-0.618-0.498-1.116-1.126-1.116h-6.607c-0.628 0-1.126 0.498-1.126 1.116v33.194c0 0.618 0.498 1.126 1.126 1.126h6.607c0.628 0 1.126-0.498 1.126-1.126z" id="svg_1" class="selected" fill-opacity="1"/><path fill="#bdae82" d="M28.687 0.281h-6.607c-0.618 0-1.126 0.498-1.126 1.116v33.194c0 0.618 0.498 1.126 1.126 1.126h6.607c0.618 0 1.126-0.498 1.126-1.126v-33.194c0-0.618-0.498-1.116-1.126-1.116z" id="svg_2" class="selected" fill-opacity="1"/></g></svg>